<svg id="e2xvkwFCDVM1" xmlns="http://www.w3.org/2000/svg" xmlns:xlink="http://www.w3.org/1999/xlink" viewBox="0 0 500 250" shape-rendering="geometricPrecision" text-rendering="geometricPrecision" project-id="337fd3ffd8834402b41c323272a1a3d5" export-id="9bf66a0169034ca5944840d0248cb859" cached="false"><path d="M0,0C18,0,18,0,22.25,3.226563C23.695068,5.331543,23.695068,5.331543,25,7.625c.513772.776177,1.027544,1.552354,1.556885,2.352051c1.039713,1.575637,2.055411,3.167413,3.045166,4.774902c1.96186,3.154873,4.14384,6.126001,6.335449,9.123047.804885,1.135657,1.608229,2.272408,2.410156,3.410156c3.692089,5.202425,7.512167,10.311332,11.313233,15.434326c2.998155,4.054832,5.952969,8.131751,8.831299,12.272706.549301.789792,1.098603,1.579584,1.66455,2.39331c1.043507,1.507697,2.081181,3.019452,3.112305,4.535645C64.464055,63.648773,65.725623,65.330053,67,67c.66,0,1.32,0,2,0c1.334277-1.582181,1.334277-1.582181,2.651123-3.689941.798748-1.215861.798748-1.215861,1.613632-2.456284.576498-.892761,1.152996-1.785523,1.746964-2.705337.901666-1.377633.901666-1.377633,1.821548-2.783097c1.289162-1.971093,2.575219-3.94422,3.858505-5.919143c3.296428-5.072828,6.614481-10.131486,9.929322-15.192292.645548-.987024,1.291097-1.974048,1.956207-2.990982C97.398291,23.897281,102.276823,16.576318,107.25,9.3125c.890782-1.303484.890782-1.303484,1.799561-2.633301C112.844214,1.155786,112.844214,1.155786,114,0c5.61,0,11.22,0,17,0c0,49.17,0,98.34,0,149-9.24,0-18.48,0-28,0-.33-28.05-.66-56.1-1-85-3.63,5.28-7.26,10.56-11,16-2.299312,3.240913-4.602614,6.472973-6.9375,9.6875-.536895.744434-1.073789,1.488867-1.626953,2.255859-1.021449,1.410931-2.048974,2.817493-3.083984,4.218506-1.161265,1.579329-2.289136,3.183116-3.410157,4.79126-2.387665,2.517377-3.627507,2.913869-7.066406,3.109375-3.896952-.186308-5.485063-.726084-8.464844-3.296875-2.188552-2.613816-4.219868-5.249549-6.180664-8.033691-1.57879-2.223975-3.250121-4.367175-4.928222-6.516602-1.247193-1.601145-2.478756-3.213294-3.70752-4.828613-3.262644-4.275927-6.595348-8.496422-9.92749-12.718262C33.407298,65.803453,31.189491,62.919321,29,60c-.33,29.37-.66,58.74-1,89-9.24,0-18.48,0-28,0C0,99.83,0,50.66,0,0Z" transform="translate(109.32795 52.243483)" fill="#0095c7"/><path d="M0,0c1.209705.005237,2.419409.010474,3.665771.015869c1.305176.003223,2.610352.006445,3.955079.009766c1.388672.008356,2.777344.016821,4.166015.02539c1.392577.005014,2.785155.009577,4.177735.013672c3.419964.011834,6.839844.02832,10.259765.048828-.697269,4.988108-2.688082,9.334716-4.65625,13.925782-.560742,1.323567-.560742,1.323567-1.132812,2.673874-1.232523,2.906196-2.471719,5.809497-3.710938,8.712844-.866965,2.040834-1.733496,4.081852-2.599609,6.123047-2.209764,5.204898-4.424862,10.407506-6.641602,15.609436-1.880649,4.41484-3.757374,8.831345-5.633789,13.247986-2.061571,4.851924-4.123396,9.703737-6.187256,14.554688-5.521183,12.97938-11.015246,25.970133-16.500244,38.964843-.391875.928367-.78375,1.856734-1.1875,2.813233-.764662,1.811713-1.52922,3.62347-2.29367,5.435272-.736505,1.745487-1.473255,3.490871-2.210267,5.236145-1.857355,4.400505-3.707339,8.803924-5.546356,13.212128-.36911.882741-.73822,1.765482-1.118515,2.674972-.703359,1.682828-1.404753,3.366479-2.103912,5.051056-2.365224,5.652639-2.365224,5.652639-3.47728,6.764694-2.145588.087756-4.294044.106953-6.441406.097657-1.305176-.003223-2.610352-.006446-3.955078-.009766-1.388673-.008357-2.777345-.016822-4.166016-.025391-1.392576-.005013-2.785155-.009576-4.177734-.013671-3.419964-.011834-6.839844-.02832-10.259766-.048829c1.998698-7.58355,4.857796-14.636616,8.036194-21.796661c1.475038-3.325034,2.929043-6.659276,4.385681-9.992401.300805-.687136.60161-1.374272.91153-2.08223c3.001373-6.867706,5.904945-13.774461,8.791595-20.691208c1.079065-2.583484,2.158587-5.166778,3.238281-7.75.423405-1.013248.423405-1.013248.855362-2.046966c4.807575-11.495989,9.670056-22.968958,14.521592-34.446442c4.011065-9.490804,8.014529-18.984657,11.998046-28.48706.747608-1.781833,1.495248-3.563653,2.24292-5.345459c1.065481-2.539279,2.130138-5.078886,3.192048-7.61966.963576-2.305487,1.930021-4.609752,2.897064-6.913788.284465-.683097.568929-1.366194.862015-2.069992C-3.432102,0.140375,-3.432102,0.140375,0,0Z" transform="translate(380.10395 46.129483)" fill="#0095c7"/><path d="M0,0C2.661489,1.272427,5.072338,2.656007,7.476563,4.363281c.661047.467769,1.322094.935537,2.003173,1.417481.707937.505473,1.415874,1.010947,2.145264,1.531738c1.122814.796882,1.122814.796882,2.268311,1.609863c6.068514,4.315248,12.100179,8.681088,18.126709,13.054688c6.809522,4.929402,13.696919,9.744732,20.608154,14.530273.803327.558325,1.606655,1.116651,2.434326,1.691895.712852.493308,1.425703.986616,2.160156,1.494873c2.485872,1.826501,3.649897,2.908539,4.605469,5.887939C62.353392,49.604216,62.275835,52.118291,61,56c-4.248849,4.78659-10.080113,8.001961-15.455566,11.370605-3.995485,2.558613-7.788381,5.379131-11.606934,8.191895-6.745238,4.890353-13.539663,9.709112-20.369385,14.480713-2.882673,2.021436-5.658972,4.032903-8.361084,6.296631C3,98,3,98,0,98c-.674661-2.873332-1.339923-5.748315-2-8.625-.190781-.808242-.381562-1.616484-.578125-2.449219C-3.102053,84.624242,-3.561412,82.319115,-4,80c-.216562-1.055742-.433125-2.111484-.65625-3.199219C-3.534802,72.014602,0.503745,70.307438,4.5,67.8125c1.736007-1.132307,3.471678-2.265129,5.207031-3.398437.881236-.565577,1.762471-1.131153,2.67041-1.713868c3.993588-2.589028,7.900221-5.299572,11.810059-8.012695c1.326436-.913322,2.65322-1.82614,3.980469-2.738281C29.102539,51.305977,30.037109,50.662734,31,50c-3.79739-4.059781-7.823212-7.109447-12.4375-10.1875-.692146-.476309-1.384292-.952617-2.097412-1.443359-3.500157-2.406483-7.022504-4.726712-10.6604-6.919922-9.327622-5.786942-9.327622-5.786942-10.554688-10.0625.208395-3.00002.862981-5.513384,1.75-8.386719.526896-2.394507,1.047713-4.79036,1.5625-7.1875C-0.965657,3.873203,-0.489135,1.935007,0,0Z" transform="translate(419.32795 98.243483)" fill="#0095c7"/><path d="M0,0c.677219,2.518408,1.341912,5.039087,2,7.5625.190781.704473.381563,1.408945.578125,2.134766C3.738642,14.194268,4.729016,18.34976,4,23c-2.097355,2.113244-3.79537,3.478558-6.25,5.0625-.652991.448997-1.305981.897993-1.97876,1.360596-1.44427.991626-2.895286,1.973477-4.351806,2.947021-3.580111,2.411788-7.099571,4.907959-10.627442,7.395264C-23.127882,42.525772,-27.063217,45.263801,-31,48c4.393149,3.598364,8.958936,6.929278,13.5625,10.25.791968.571941,1.583936,1.143882,2.399902,1.733154C-8.788904,64.475551,-2.456195,68.809803,4,73c-.546649,8.180882-2.171239,16.017859-4,24-5.108792-1.629182-8.997092-4.720912-13.25-7.875-1.619181-1.18573-3.238987-2.370607-4.859375-3.554687-.81791-.599092-1.63582-1.198184-2.478516-1.81543C-24.196848,81.129257,-27.84639,78.562942,-31.5,76c-6.942794-4.879428-13.832328-9.82956-20.701172-14.8125-.714785-.518203-1.42957-1.036406-2.166015-1.570312-.630191-.457779-1.260381-.915557-1.909668-1.387208C-57.829263,57.121872,-59.413013,56.057991,-61,55c-1.265118-4.533341-1.194685-8.458137,0-13c3.199266-3.679156,6.952777-6.193982,11.04541-8.76416c2.613704-1.652582,5.140828-3.418999,7.678467-5.185303c1.997521-1.386567,4.007015-2.754357,6.018311-4.120849c4.578516-3.129971,9.078504-6.364435,13.570312-9.617188.757002-.547207,1.514004-1.094414,2.293945-1.658203c3.307337-2.396117,6.604423-4.803233,9.870118-7.255859.977109-.72961,1.954218-1.459219,2.960937-2.210938.823711-.625195,1.647422-1.250391,2.496094-1.894531C-3,0,-3,0,0,0Z" transform="translate(80.46148 99.243483)" fill="#0095c7"/></svg>
